<?xml version="1.0" encoding="UTF-8" standalone="no"?>
<!DOCTYPE svg PUBLIC "-//W3C//DTD SVG 1.1//EN" "http://www.w3.org/Graphics/SVG/1.1/DTD/svg11.dtd">
<svg width="100%" height="100%" viewBox="0 0 1772 1772" version="1.1" xmlns="http://www.w3.org/2000/svg" xmlns:xlink="http://www.w3.org/1999/xlink" xml:space="preserve" xmlns:serif="http://www.serif.com/" style="fill-rule:evenodd;clip-rule:evenodd;stroke-linejoin:round;stroke-miterlimit:2;">
    <g id="Calque-1" serif:id="Calque 1" transform="matrix(4.16667,0,0,4.16667,0,0)">
        <g transform="matrix(-1,0,0,1,425.197,0)">
            <rect x="56.693" y="56.693" width="311.811" height="311.811" style="fill:rgb(53,52,53);"/>
        </g>
        <g transform="matrix(1,0,0,1,191.846,119.752)">
            <path d="M0,11.994L11.887,-19.121L23.878,11.994L0,11.994ZM49.721,40.936C45.482,40.419 44.449,38.869 38.35,23.983L16.539,-29.355L15.402,-29.355L-2.584,17.575C-2.913,18.43 -3.216,19.201 -3.525,19.994C-3.484,19.994 -3.445,19.989 -3.404,19.989C-3.264,19.989 -3.128,20.003 -2.988,20.005C-2.725,19.192 -2.48,18.373 -2.171,17.575L-0.207,12.407L24.085,12.407L28.736,24.5C33.389,36.491 35.146,40.728 28.53,40.936L25.842,41.04L25.842,41.349L50.547,41.349L50.547,41.04L49.721,40.936Z" style="fill:white;fill-rule:nonzero;"/>
        </g>
        <g transform="matrix(1,0,0,1,142.605,229.249)">
            <path d="M0,-68.689L-8.784,-68.689L-8.784,-22.119C-5.292,-21.166 -2.539,-20.743 0.424,-20.743C11.325,-20.743 16.088,-29.739 16.088,-44.875C16.088,-56.94 11.325,-68.689 0,-68.689M0.424,-20.319C-2.01,-20.319 -5.398,-20.638 -8.784,-21.59L-8.784,-14.075C-8.784,-0.316 -7.937,-0.21 -4.023,0.002L-1.904,0.108L-1.904,0.424L-24.448,0.424L-24.448,0.108L-22.332,0.002C-18.416,-0.21 -17.57,-0.316 -17.57,-14.075L-17.57,-54.612C-17.57,-68.372 -18.416,-68.477 -22.332,-68.689L-24.448,-68.795L-24.448,-69.113L-0.106,-69.113C13.231,-69.113 26.354,-62.233 26.354,-44.875C26.354,-31.433 16.511,-20.319 0.424,-20.319" style="fill:white;fill-rule:nonzero;"/>
        </g>
        <g transform="matrix(1,0,0,1,198.916,160.137)">
            <path d="M0,47.416C4.655,47.416 9.101,44.135 11.429,39.69L11.429,25.508C7.831,23.813 4.655,22.967 0.316,22.967C-4.976,22.967 -10.796,25.295 -10.796,35.667C-10.796,45.193 -5.398,47.416 0,47.416M11.642,47.522L11.642,40.219C9.207,44.241 4.974,48.687 -2.859,48.687C-13.231,48.687 -20.64,43.818 -20.64,35.139C-20.64,26.566 -14.078,22.438 -1.059,22.438C4.021,22.438 7.302,23.179 11.429,24.978L11.429,10.477C11.429,3.281 7.515,-0.847 -0.212,-0.847C-6.139,-0.847 -8.151,0.423 -8.151,2.117C-8.151,3.704 -5.823,5.08 -5.823,8.361C-5.823,11.43 -8.257,13.653 -11.115,13.653C-14.501,13.653 -16.723,11.43 -16.723,8.361C-16.723,3.069 -10.903,-1.271 -0.318,-1.271C10.054,-1.271 20.216,3.916 20.216,15.346L20.216,33.022C20.216,46.781 21.062,46.887 24.977,47.099L27.096,47.205L27.096,47.522L11.642,47.522Z" style="fill:white;fill-rule:nonzero;"/>
        </g>
        <g transform="matrix(1,0,0,1,229.826,158.867)">
            <path d="M0,48.792L0,48.475L2.116,48.369C6.033,48.157 6.878,48.051 6.878,34.292L6.878,15.77C6.878,2.01 6.033,1.905 2.116,1.693L0,1.586L0,1.269L15.451,1.269L15.451,8.573C18.415,2.751 22.226,0 27.306,0C32.281,0 36.514,3.174 36.514,8.149C36.514,12.277 33.763,13.759 31.222,13.759C28.471,13.759 26.142,11.747 26.142,8.996C26.142,4.656 30.059,4.339 30.059,2.116C30.059,1.376 29.317,0.423 26.989,0.423C22.544,0.423 18.627,2.963 15.664,9.101L15.664,34.292C15.664,48.051 16.511,48.157 21.484,48.369L24.66,48.475L24.66,48.792L0,48.792Z" style="fill:white;fill-rule:nonzero;"/>
        </g>
        <g transform="matrix(1,0,0,1,298.519,154.74)">
            <path d="M0,42.547C0,49.003 -1.694,54.19 -9.631,54.19C-17.252,54.19 -22.438,48.474 -22.438,38.313L-22.438,5.82L-29.953,5.82L-29.953,5.396L-22.438,5.396L-22.438,-11.643L-13.654,-11.643L-13.654,5.396L-1.481,5.396L-1.481,5.82L-13.654,5.82L-13.654,38.313C-13.654,43.923 -13.441,52.919 -7.198,52.919C-2.647,52.919 -0.425,49.321 -0.425,42.547L0,42.547Z" style="fill:white;fill-rule:nonzero;"/>
        </g>
        <g transform="matrix(1,0,0,1,216.647,228.05)">
            <path d="M0,42.547C0,49.003 -1.693,54.19 -9.631,54.19C-17.252,54.19 -22.438,48.474 -22.438,38.314L-22.438,5.819L-29.953,5.819L-29.953,5.397L-22.438,5.397L-22.438,-11.643L-13.654,-11.643L-13.654,5.397L-1.481,5.397L-1.481,5.819L-13.654,5.819L-13.654,38.314C-13.654,43.923 -13.441,52.919 -7.198,52.919C-2.646,52.919 -0.425,49.321 -0.425,42.547L0,42.547Z" style="fill:white;fill-rule:nonzero;"/>
        </g>
        <g transform="matrix(1,0,0,1,223.424,232.177)">
            <path d="M0,48.792L0,48.475L2.116,48.369C6.032,48.157 6.878,48.052 6.878,34.292L6.878,15.77C6.878,2.01 6.032,1.905 2.116,1.692L0,1.587L0,1.27L15.451,1.27L15.451,8.572C18.415,2.751 22.226,0 27.306,0C32.281,0 36.514,3.175 36.514,8.149C36.514,12.277 33.763,13.759 31.222,13.759C28.471,13.759 26.142,11.747 26.142,8.996C26.142,4.656 30.059,4.339 30.059,2.116C30.059,1.375 29.317,0.423 26.989,0.423C22.544,0.423 18.627,2.963 15.664,9.102L15.664,34.292C15.664,48.052 16.511,48.157 21.484,48.369L24.66,48.475L24.66,48.792L0,48.792Z" style="fill:white;fill-rule:nonzero;"/>
        </g>
        <g transform="matrix(1,0,0,1,285.766,281.922)">
            <path d="M0,-49.322C10.269,-49.322 11.325,-38.526 11.325,-28.365L-12.276,-28.365C-12.172,-40.855 -10.584,-49.322 0,-49.322M6.419,-1.003C5.543,-0.915 4.651,-0.846 3.704,-0.846C-10.794,-0.846 -12.276,-14.394 -12.276,-25.402L-12.276,-27.942L21.274,-27.942C21.274,-40.538 15.242,-49.745 0,-49.745C-11.854,-49.745 -22.437,-42.019 -22.437,-24.555C-22.437,-11.854 -14.183,0.423 1.588,0.423C3.394,0.423 5.039,0.241 6.61,-0.023C6.53,-0.345 6.476,-0.675 6.419,-1.003" style="fill:white;fill-rule:nonzero;"/>
        </g>
        <g transform="matrix(1,0,0,1,159.277,226.391)">
            <path d="M0,-7.442L12.488,3.034L12.911,3.034L3.598,-10.476L-3.494,-10.476L-12.807,3.034L-12.384,3.034L0,-7.442Z" style="fill:white;fill-rule:nonzero;"/>
        </g>
        <g transform="matrix(1,0,0,1,158.747,281.922)">
            <path d="M0,-49.322C10.268,-49.322 11.325,-38.526 11.325,-28.365L-12.276,-28.365C-12.172,-40.855 -10.584,-49.322 0,-49.322M3.632,-0.85C-10.795,-0.898 -12.276,-14.414 -12.276,-25.402L-12.276,-27.942L21.274,-27.942C21.274,-40.538 15.242,-49.745 0,-49.745C-11.854,-49.745 -22.438,-42.019 -22.438,-24.555C-22.438,-11.854 -14.183,0.423 1.588,0.423C2.351,0.423 3.044,0.343 3.766,0.296C3.693,-0.077 3.682,-0.469 3.632,-0.85" style="fill:white;fill-rule:nonzero;"/>
        </g>
        <g transform="matrix(1,0,0,1,88.0117,319.289)">
            <path d="M0,14.944L2.073,14.944C3.875,14.944 4.861,13.707 4.861,11.324C4.861,8.937 3.844,7.717 1.739,7.717L0,7.717L0,14.944ZM1.754,5.857C3.726,5.857 4.412,4.86 4.412,2.927C4.412,1.105 3.586,0.025 1.955,0.025L0,0.025L0,5.857L1.754,5.857ZM-1.941,-1.859L2.374,-1.859C4.849,-1.859 6.334,-0.164 6.334,2.717C6.334,5.192 5.311,6.287 4.384,6.673C5.586,7.177 6.848,8.465 6.848,11.332C6.848,14.726 5.059,16.803 2.262,16.803L-1.941,16.803L-1.941,-1.859Z" style="fill:white;fill-rule:nonzero;"/>
        </g>
        <g transform="matrix(1,0,0,1,105.53,326.261)">
            <path d="M0,1L-5.317,1L-5.317,7.819L0.6,7.819L0.337,9.831L-7.27,9.831L-7.27,-8.831L0.262,-8.831L0.262,-6.794L-5.317,-6.794L-5.317,-1.025L0,-1.025L0,1Z" style="fill:white;fill-rule:nonzero;"/>
        </g>
        <g transform="matrix(1,0,0,1,115.318,325.144)">
            <path d="M0,3.234C-0.869,-1.159 -1.447,-4.018 -1.668,-5.56L-1.727,-5.56C-1.941,-3.917 -2.569,-0.665 -3.32,3.234L0,3.234ZM-3.696,5.258L-4.792,10.948L-6.766,10.948C-6.766,10.948 -2.92,-7.714 -2.919,-7.714L-0.359,-7.714L3.589,10.948L1.499,10.948L0.389,5.258L-3.696,5.258Z" style="fill:white;fill-rule:nonzero;"/>
        </g>
        <g transform="matrix(1,0,0,1,123.518,336.392)">
            <path d="M0,-18.962L0,-5.917C0,-3.959 0.477,-1.975 2.531,-1.975C4.578,-1.975 5.063,-3.64 5.063,-5.919L5.063,-18.962L7.037,-18.962L7.037,-5.879C7.037,-2.492 5.966,0 2.483,0C-0.888,0 -1.987,-2.342 -1.987,-5.786L-1.987,-18.962L0,-18.962Z" style="fill:white;fill-rule:nonzero;"/>
        </g>
        <g transform="matrix(1,0,0,1,136.887,334.055)">
            <path d="M0,-14.588L-3.55,-14.588L-3.55,-16.625L5.523,-16.625L5.523,-14.588L1.974,-14.588L1.974,2.037L0,2.037L0,-14.588Z" style="fill:white;fill-rule:nonzero;"/>
        </g>
        <g transform="matrix(1,0,0,1,152.855,336.091)">
            <path d="M0,-23.274L-3.124,-20.007L-5.091,-20.007L-2.425,-23.274L0,-23.274ZM-0.31,-8.831L-5.627,-8.831L-5.627,-2.011L0.29,-2.011L0.028,0L-7.579,0L-7.579,-18.662L-0.047,-18.662L-0.047,-16.625L-5.627,-16.625L-5.627,-10.856L-0.31,-10.856L-0.31,-8.831Z" style="fill:white;fill-rule:nonzero;"/>
        </g>
        <g transform="matrix(1,0,0,1,169.629,322.507)">
            <path d="M0,6.985C-0.142,6.985 -0.26,6.925 -0.355,6.806C-0.45,6.687 -0.497,6.536 -0.497,6.352C-0.497,6.196 -0.469,6.022 -0.414,5.83C-0.359,5.637 -0.271,5.459 -0.148,5.294C-0.026,5.129 0.128,4.991 0.313,4.881C0.498,4.771 0.721,4.715 0.981,4.715C1.312,4.715 1.685,4.761 2.099,4.853C2.513,4.945 2.93,5.052 3.352,5.176C3.774,5.3 4.186,5.428 4.588,5.561C4.99,5.694 5.349,5.798 5.664,5.871C5.908,5.935 6.161,5.972 6.421,5.981C6.681,5.99 6.925,5.954 7.154,5.871C7.382,5.789 7.587,5.653 7.769,5.465C7.95,5.277 8.084,5.018 8.171,4.688C8.218,4.514 8.253,4.351 8.277,4.2C8.301,4.049 8.334,3.921 8.378,3.815C8.421,3.71 8.476,3.631 8.543,3.582C8.61,3.531 8.711,3.519 8.845,3.547L10.086,3.849C10.268,3.878 10.384,3.937 10.436,4.028C10.486,4.12 10.512,4.281 10.512,4.509C10.512,5.088 10.394,5.632 10.157,6.146C9.921,6.66 9.613,7.106 9.235,7.487C8.857,7.867 8.429,8.167 7.952,8.387C7.475,8.607 6.992,8.717 6.503,8.717C6.102,8.717 5.717,8.662 5.351,8.552C4.984,8.442 4.624,8.337 4.269,8.236C4.182,9.245 3.961,10.108 3.606,10.828C3.251,11.547 2.806,12.136 2.27,12.594C1.734,13.053 1.125,13.387 0.443,13.598C-0.239,13.809 -0.95,13.915 -1.691,13.915C-2.503,13.915 -3.274,13.758 -4.003,13.447C-4.732,13.135 -5.371,12.698 -5.918,12.134C-6.467,11.57 -6.9,10.896 -7.219,10.113C-7.539,9.329 -7.698,8.469 -7.698,7.535C-7.698,6.196 -7.462,5.088 -6.989,4.207C-6.516,3.327 -5.861,2.612 -5.026,2.062C-5.483,1.631 -5.844,1.09 -6.108,0.44C-6.372,-0.211 -6.504,-0.931 -6.504,-1.719C-6.504,-2.471 -6.374,-3.167 -6.114,-3.809C-5.854,-4.451 -5.505,-5 -5.067,-5.459C-4.63,-5.917 -4.125,-6.278 -3.554,-6.538C-2.982,-6.8 -2.381,-6.93 -1.75,-6.93C-1.12,-6.93 -0.519,-6.825 0.053,-6.615C0.625,-6.403 1.125,-6.082 1.555,-5.652C1.984,-5.221 2.327,-4.68 2.583,-4.029C2.84,-3.378 2.968,-2.608 2.968,-1.719C2.968,-1.49 2.922,-1.331 2.832,-1.244C2.741,-1.158 2.613,-1.115 2.448,-1.115L1.277,-1.115C1.095,-1.115 0.95,-1.166 0.839,-1.272C0.729,-1.377 0.674,-1.527 0.674,-1.719L0.697,-1.719C0.697,-2.572 0.494,-3.244 0.088,-3.734C-0.318,-4.224 -0.919,-4.469 -1.715,-4.469C-2.156,-4.469 -2.537,-4.389 -2.856,-4.229C-3.175,-4.068 -3.436,-3.855 -3.636,-3.589C-3.837,-3.324 -3.985,-3.023 -4.08,-2.689C-4.174,-2.354 -4.222,-2.012 -4.222,-1.664C-4.222,-1.334 -4.173,-1.013 -4.074,-0.702C-3.976,-0.39 -3.83,-0.108 -3.636,0.144C-3.443,0.396 -3.205,0.609 -2.921,0.784C-2.637,0.958 -2.314,1.072 -1.951,1.128C-1.754,1.145 -1.614,1.205 -1.532,1.306C-1.449,1.407 -1.407,1.558 -1.407,1.759L-1.561,2.846C-1.593,3.047 -1.644,3.19 -1.715,3.272C-1.786,3.354 -1.9,3.396 -2.058,3.396C-3.209,3.396 -4.056,3.747 -4.6,4.448C-5.144,5.149 -5.416,6.169 -5.416,7.507C-5.416,8.085 -5.315,8.609 -5.115,9.082C-4.914,9.553 -4.644,9.957 -4.305,10.292C-3.966,10.627 -3.571,10.885 -3.122,11.068C-2.673,11.252 -2.196,11.343 -1.691,11.343C-1.242,11.343 -0.802,11.265 -0.373,11.11C0.057,10.954 0.441,10.717 0.78,10.401C1.119,10.086 1.399,9.684 1.62,9.198C1.84,8.713 1.967,8.139 1.998,7.479L0,6.985Z" style="fill:rgb(177,150,104);fill-rule:nonzero;"/>
        </g>
        <g transform="matrix(1,0,0,1,194.035,325.144)">
            <path d="M0,3.234C-0.869,-1.159 -1.447,-4.018 -1.668,-5.56L-1.727,-5.56C-1.941,-3.917 -2.569,-0.665 -3.32,3.234L0,3.234ZM-3.696,5.258L-4.792,10.948L-6.766,10.948C-6.766,10.948 -2.92,-7.714 -2.919,-7.714L-0.359,-7.714L3.589,10.948L1.499,10.948L0.389,5.258L-3.696,5.258Z" style="fill:white;fill-rule:nonzero;"/>
        </g>
        <g transform="matrix(1,0,0,1,207.688,321.393)">
            <path d="M0,13.009L3.019,15.626L1.862,17.245L-1.67,14.191L0,13.009ZM-5.769,5.185C-5.769,10.336 -4.911,13.009 -2.98,13.009C-0.98,13.009 -0.193,10.437 -0.193,5.215C-0.193,-0.01 -1.042,-2.25 -2.993,-2.25C-4.907,-2.25 -5.769,0.278 -5.769,5.185M1.838,5.207C1.838,11.658 0.479,14.984 -3.038,14.984C-6.373,14.984 -7.8,11.761 -7.8,5.227C-7.8,-1.204 -6.128,-4.236 -2.948,-4.236C0.409,-4.236 1.838,-1.147 1.838,5.207" style="fill:white;fill-rule:nonzero;"/>
        </g>
        <g transform="matrix(1,0,0,1,215.124,336.392)">
            <path d="M0,-18.962L0,-5.917C0,-3.959 0.478,-1.975 2.531,-1.975C4.578,-1.975 5.064,-3.64 5.064,-5.919L5.064,-18.962L7.038,-18.962L7.038,-5.879C7.038,-2.492 5.967,0 2.483,0C-0.888,0 -1.986,-2.342 -1.986,-5.786L-1.986,-18.962L0,-18.962Z" style="fill:white;fill-rule:nonzero;"/>
        </g>
        <g transform="matrix(1,0,0,1,231.474,325.144)">
            <path d="M0,3.234C-0.869,-1.159 -1.447,-4.018 -1.669,-5.56L-1.727,-5.56C-1.942,-3.917 -2.57,-0.665 -3.32,3.234L0,3.234ZM-3.696,5.258L-4.793,10.948L-6.767,10.948L-2.92,-7.714L-0.359,-7.714L3.588,10.948L1.498,10.948L0.389,5.258L-3.696,5.258Z" style="fill:white;fill-rule:nonzero;"/>
        </g>
        <g transform="matrix(1,0,0,1,245.577,319.289)">
            <path d="M0,14.944L2.072,14.944C3.875,14.944 4.861,13.707 4.861,11.324C4.861,8.937 3.845,7.717 1.739,7.717L0,7.717L0,14.944ZM1.755,5.857C3.727,5.857 4.412,4.86 4.412,2.927C4.412,1.105 3.587,0.025 1.954,0.025L0,0.025L0,5.857L1.755,5.857ZM-1.941,-1.859L2.374,-1.859C4.849,-1.859 6.334,-0.164 6.334,2.717C6.334,5.192 5.311,6.287 4.384,6.673C5.586,7.177 6.848,8.465 6.848,11.332C6.848,14.726 5.06,16.803 2.262,16.803L-1.941,16.803L-1.941,-1.859Z" style="fill:white;fill-rule:nonzero;"/>
        </g>
        <g transform="matrix(-1,0,0,1,513.626,228.325)">
            <rect x="255.826" y="89.105" width="1.974" height="18.662" style="fill:white;"/>
        </g>
        <g transform="matrix(1,0,0,1,269.386,326.261)">
            <path d="M0,1L-5.317,1L-5.317,7.819L0.6,7.819L0.338,9.831L-7.27,9.831L-7.27,-8.831L0.262,-8.831L0.262,-6.794L-5.317,-6.794L-5.317,-1.025L0,-1.025L0,1Z" style="fill:white;fill-rule:nonzero;"/>
        </g>
        <g transform="matrix(1,0,0,1,273.066,317.43)">
            <path d="M0,18.662L0,0L2.378,0C6.603,12.423 7.229,14.221 7.431,15.051L7.454,15.051C7.338,12.593 7.312,9.796 7.312,6.759L7.312,0L9.138,0L9.138,18.662L6.863,18.662C2.479,5.581 1.902,3.816 1.716,3.057L1.692,3.057C1.811,5.384 1.823,8.381 1.823,11.737L1.823,18.662L0,18.662Z" style="fill:white;fill-rule:nonzero;"/>
        </g>
        <g transform="matrix(1,0,0,1,296.933,336.092)">
            <path d="M0,-23.069L2.349,-19.957L0.311,-19.957L-1.081,-21.79L-2.425,-19.957L-4.461,-19.957L-2.139,-23.069L0,-23.069ZM2.488,-8.831L-2.829,-8.831L-2.829,-2.011L3.088,-2.011L2.826,0L-4.781,0L-4.781,-18.662L2.75,-18.662L2.75,-16.625L-2.829,-16.625L-2.829,-10.856L2.488,-10.856L2.488,-8.831Z" style="fill:white;fill-rule:nonzero;"/>
        </g>
        <g transform="matrix(1,0,0,1,305.732,334.055)">
            <path d="M0,-14.588L-3.55,-14.588L-3.55,-16.625L5.523,-16.625L5.523,-14.588L1.974,-14.588L1.974,2.037L0,2.037L0,-14.588Z" style="fill:white;fill-rule:nonzero;"/>
        </g>
        <g transform="matrix(1,0,0,1,316.084,327.825)">
            <path d="M0,-2.13L1.918,-2.13C3.829,-2.13 4.557,-3.334 4.557,-5.449C4.557,-7.275 3.827,-8.472 2.109,-8.472L0,-8.472L0,-2.13ZM0,-0.205L0,8.266L-1.963,8.266L-1.963,-10.396L2.363,-10.396C5.1,-10.396 6.558,-8.621 6.558,-5.525C6.558,-2.752 5.369,-1.568 4.423,-1.183C5.863,-0.555 6.35,0.915 6.35,3.557L6.35,4.3C6.35,6.109 6.405,7.262 6.575,8.266L4.629,8.266C4.405,7.414 4.384,5.789 4.384,4.257L4.384,3.614C4.384,0.987 3.913,-0.205 1.812,-0.205L0,-0.205Z" style="fill:white;fill-rule:nonzero;"/>
        </g>
        <g transform="matrix(1,0,0,1,333.594,326.261)">
            <path d="M0,1L-5.317,1L-5.317,7.819L0.6,7.819L0.338,9.831L-7.27,9.831L-7.27,-8.831L0.262,-8.831L0.262,-6.794L-5.317,-6.794L-5.317,-1.025L0,-1.025L0,1Z" style="fill:white;fill-rule:nonzero;"/>
        </g>
    </g>
</svg>
